# xmcd
# 
# Track frame offsets:
#     150
#     23670
#     47472
# 
# Disc length: 874
# 
# Revision: 1
# Processed by: cddbd v1.5.2PL0 Copyright (c) Steve Scherf et al.
# Submitted via: BonkEnc v1.0
# 
DISCID=16036803
DTITLE=Tracy Chapman - Subcity [CD Single)
DYEAR=1990
DGENRE=Pop
TTITLE0=Subcity
TTITLE1=All that you have is your soul
TTITLE2=Freedom now
EXTD=
EXTT0=
EXTT1=
EXTT2=
PLAYORDER=
